<?xml version="1.0" encoding="UTF-8"?>
<!DOCTYPE svg PUBLIC "-//W3C//DTD SVG 1.1//EN" "http://www.w3.org/Graphics/SVG/1.1/DTD/svg11.dtd">
<!-- Creator: CorelDRAW 2019 (64-Bit) -->
<svg xmlns="http://www.w3.org/2000/svg" xml:space="preserve" width="360mm" height="78mm" version="1.1" style="shape-rendering:geometricPrecision; text-rendering:geometricPrecision; image-rendering:optimizeQuality; fill-rule:evenodd; clip-rule:evenodd"
viewBox="0 0 36000 7800"
 xmlns:xlink="http://www.w3.org/1999/xlink">
 <defs>
  <style type="text/css">
   <![CDATA[
    .fil0 {fill:#FEFEFE}
    .fil1 {fill:#FED505}
   ]]>
  </style>
 </defs>
 <g id="Layer_x0020_1">
  <metadata id="CorelCorpID_0Corel-Layer"/>
  <path class="fil0" d="M3531.35 1144.32c117.05,41.97 1403.55,280.6 1505.34,325.16 96.1,42.09 273.78,60.68 377.43,37.5l608.96 -230.03c72.58,-36.15 112.1,-31.87 177.85,-48.67 40.27,-94.54 26.85,-276.04 -91.43,-364.5 -47.06,-35.25 -88.53,-66.27 -137.77,-104.51 -58.45,-45.39 -298.92,-133.46 -349.99,-140.41l-204.71 -34.42c-399.67,-28.76 -879.45,101.95 -1256.42,225.25l-527.26 203.4c-80.25,37.9 -147.69,36.38 -168.15,98.21 -7.52,22.69 35.43,26.61 66.15,33.02z"/>
  <path class="fil1" d="M5613.01 506.59c144.41,-22.94 236.62,-150.31 483.26,-143.18 243.43,7.04 517.6,163 467.53,397.35 -31.47,137.63 27.52,-34.98 191.31,192.69l372.54 -13.99c-2.92,-142.05 -100.66,-195.02 -216.94,-246.11 -83.95,-36.88 -41.35,-1.55 -75.94,-85.52 -63.38,-153.83 -174.53,-228.75 -319.01,-287.18 -249.45,-100.89 -504.1,-76.49 -738.15,50.95 -43.06,23.5 -141.87,94.02 -164.6,134.99zm-1575.42 1676.22l-1.34 372.42c-2.76,770.4 5.58,2501.64 0,2827.02 -4.29,249.26 -53.41,483.29 -129.71,702.02 -76.29,218.75 -186.94,414.6 -331.94,587.56 -144.99,172.95 -333.2,309.03 -564.66,408.23 -231.44,99.18 -494.73,148.79 -789.78,148.79 -587.05,0 -1049.48,-430.34 -1106.43,-1007.23 -21.07,-213.59 71.12,-369.04 274.7,-465.46 183.03,-86.7 338.3,-81.4 465.47,15.25 127.16,96.66 148.25,259.75 61.07,488.36 -101.01,264.8 -124.67,474.84 -76.31,633.35 43.2,141.66 124.53,224.59 251.79,244.17 203.38,31.25 379.02,-34.35 526.51,-194.6 147.51,-160.2 247.55,-347.65 305.24,-560.82 59.31,-219.21 91.56,-551.96 91.56,-999.62l1.3 -3100.13c-15.75,-9.56 -32.67,-18.56 -45.33,-25.76 -123.35,-70.08 -242.83,-145.2 -370.04,-210.21 -77.44,-39.59 -178.14,-85.75 -302.02,-138.49 -212.11,-90.28 -446.78,-124.08 -667.45,-35.14 -84.99,34.24 -134.14,87 -149.39,153.3 -15.26,66.31 2.22,126.96 52.34,181.9 66.86,73.24 111.72,158.32 134.62,255.14 40.98,173.23 3.17,333.71 -113.53,481.32 -116.7,147.61 -276.14,238.98 -478.24,274.13 -202.11,35.14 -388.98,3.98 -560.57,-93.51 -171.59,-97.51 -277.92,-232.89 -318.9,-406.15 -30.14,-127.38 -14.21,-256.14 47.83,-386.29 167.77,-351.94 537.07,-598.79 968.53,-673.77 229.95,-40.01 426.15,-41.12 653.09,13.75 114.88,27.76 216.11,56.62 303.65,86.49 87.5,29.84 187.58,73.5 300.19,130.84 112.56,57.35 206.11,106.1 280.58,146.2 482.53,259.89 743.9,432.06 1287.17,146.94zm4462.51 3301.95c0,86.28 24.4,153.14 73.25,200.25 48.85,47.12 128.77,94.25 239.73,141.36l-1524.93 0c10.44,0 83.02,-33.24 96.56,-41.23 29.24,-17.22 72.12,-31.37 96.56,-53.01 24.8,-21.93 62.3,-44.11 76.59,-73.6 17.64,-36.42 34.98,-65.45 43.29,-106.03 21.71,-105.8 13.35,-356.45 11.11,-471.27 -3.96,-192.41 -65.49,-350.46 -183.12,-474.13 -117.63,-123.67 -276.14,-149.99 -476.14,-161.96 -198.63,-11.9 -652.77,334.97 -933.87,608.63l0 300.1c0,35.63 1.28,66.14 3.82,91.56 5.14,51.63 33.39,94.5 53.41,141.17 16.28,37.99 55.22,62.92 83.95,91.58 15.88,15.89 86.37,61.84 106.81,68.67 19.47,6.48 98.58,45.17 110.64,57.23l-1739.76 0c0,-10.72 93.92,-51.65 110.63,-57.23 23.62,-7.87 85.11,-46.95 103.02,-64.87 29.31,-29.31 71.4,-57.25 87.77,-95.38 36.71,-85.77 57.23,-136.93 57.23,-232.73l0 -1961.06c0,-144.59 -117.15,-251.8 -259.45,-251.8l-244.17 0c83.46,-55.66 191.39,-127.26 323.71,-214.86l-0.2 -0.33 88.52 -64.15 -310.42 -688.22 113.25 -49.38 305.77 671.85 40.65 -26.87 -216.04 -484.43 112.77 -50.33 207.73 465.79c242.29,-159.74 427.36,-279.82 555.15,-360.29 66.12,-45.79 133.53,-49.61 202.19,-11.46 68.69,38.15 103.02,95.4 103.02,171.71l0 587.56c76.31,-81.4 141.18,-147.54 194.58,-198.4 53.41,-50.89 120.83,-113.21 202.2,-186.94 81.42,-73.78 155.18,-132.28 221.32,-175.53 66.12,-43.22 143.69,-87.74 232.71,-133.53 175.85,-90.45 337.39,-122.1 534.15,-122.1 167.89,0 332.12,36.23 480.72,104.78 61.6,24.33 119.5,53.46 173.61,87.39 190.87,119.76 308.55,268.97 352.92,447.62l3.41 14.14c20.63,62.65 30.9,127.01 30.9,193.08 0,24.59 -1.22,48.64 -3.68,72.18 -2.27,89.27 -15.81,179.7 -40.63,271.28 -51.04,188.47 -176.45,362.24 -376.21,521.26 -199.77,158.99 -446.16,267.96 -739.15,326.86 372.9,27.48 669.23,131.56 888.95,312.14 314.52,258.5 325.17,501.18 325.17,862.93zm-2480.97 -658.86c116.98,-94.43 479.78,-333.88 604.28,-421.99 77.67,-54.93 133.16,-94.22 166.45,-117.79 33.31,-23.57 97.7,-63.8 193.12,-120.73 95.45,-56.92 146.48,-90.84 156.48,-97.18 207.66,-131.17 355.15,-293.51 439.51,-491.79 313.43,-736.83 -333.44,-1418.01 -1018.07,-885.62 -91.56,71.21 -165.32,132.28 -221.29,183.14 -91.89,83.55 -175.48,175.48 -263.25,263.25 -17.59,17.59 -46.9,44.24 -57.23,64.86l0 1623.85zm-759.98 -2964.54c-265.28,0 -525.98,-84.91 -750.59,-157.61 -180.71,-58.45 -615.36,-126.19 -790.17,-117.79 34.73,62.83 89.22,74.55 175.04,120.87 420.07,226.76 1031.96,568.49 1505.09,568.49 523.15,0 838.44,-395.58 1084.04,-748.21 46.9,-67.41 207.36,-337.62 217.48,-384.46 -56.68,17.85 -229.56,204.01 -280.45,252.44 -261.25,248.68 -739.68,466.27 -1160.44,466.27zm-3145.71 -372.61c46.81,88.21 209.02,-2.31 274.19,-17.59 236,-55.33 714.63,-17.66 943.96,13.01 298.67,39.98 641.36,64.78 952.37,41.95 110.17,-8.08 179.44,-40.82 287.41,-47.6 -4.28,-4.12 -11.5,-14.65 -14.4,-10.49l-570.84 -154.29c-258.59,-42.46 -361.34,-74.59 -661.02,-70.38 -407.22,5.74 -898.68,124.43 -1211.67,245.39zm4327.84 -879.51c49.34,0 89.34,40.01 89.34,89.34 0,49.36 -40,89.34 -89.34,89.34 -49.33,0 -89.33,-39.98 -89.33,-89.34 0,-49.33 40,-89.34 89.33,-89.34z"/>
  <path class="fil0" d="M20363.05 3375.61c-510.1,-574.13 -2111.4,-163.14 -2105.77,1243.07 4.09,1039.8 915.53,1438.46 1561.36,1139.49 242.36,-112.16 398.97,-273.15 555.38,-408.91 12.64,137.7 -27.04,389.97 226.09,486.3 123.32,46.93 1942.18,27.88 2125.05,21.37 -211.09,-129.87 -269.77,-125.55 -268.94,-449.86 0.74,-293.39 -15.37,-2095.03 5.65,-2219.51l571.84 -1.85 0 -53.66 -576.45 -0.4c-8.08,-377.07 18.13,-755.35 176.57,-1045.61 68.85,-126.01 179.56,-274.78 286.26,-334.55 175.57,-98.37 366.24,23.98 430.53,136.12 187.98,327.93 -244.36,676.49 -0.84,1000.94 376.04,500.98 1317.38,-131.31 340.32,-931.76 -274.59,-225 -507.62,-300.1 -962.65,-247.32 -384.99,44.64 -641.5,233.94 -794.34,449.17 -185.55,261.44 -250.76,583.46 -274.79,968.1l-273.36 6.05 0 53.06 269.61 0.83c15.53,117.7 4.14,1062.79 4.14,1265.34 0,237.68 38.38,1079.97 -39.75,1227.14 -76.47,144.06 -225.44,216.66 -374.85,42.39 -105.11,-122.59 -68.83,-391.04 -68.83,-572.24l-0.72 -830.82 4.4 0c0,-333.32 -2.36,-666.95 -5.21,-1000.41l-0.44 -491.41c-0.07,-90.91 -2.2,-177.43 -5.88,-259.94l0.07 11.67 -0.07 -11.67c-1.78,-239.56 -3.01,-478.72 -3.01,-717.29 0,-249.59 6.37,-465.3 -86.05,-680.12 -429.07,-997.64 -2124.24,-528.61 -2465.9,274.36 -46.74,109.78 -37.13,211.11 3.62,323.27 34.14,94.02 80.24,138.19 122.09,200.14 120.43,177.96 218.61,320.73 260.14,538.2 1.99,10.49 3.75,20.86 5.17,31 23.91,165.06 -15.79,285.33 104.89,390.69 108.25,94.45 272.09,91.86 402.52,20.79 207.91,-113.25 249.33,-370.59 140.66,-548.9 -50.56,-82.93 -70.79,-87.53 -126.15,-146.54 -133.64,-142.45 -468.52,-283.64 -643.21,-418.26 -276.72,-213.13 -132.17,-521.35 59.68,-697.85 164.86,-151.68 402.73,-291.86 684.84,-376.8 246.07,-74.06 722.04,-165.15 798.88,108.53 39.31,139.97 0.04,334.36 -22.71,470.6 -49.17,295.01 -45.12,1321.94 -39.84,2037.06zm12857.95 2834.94c145.52,369.86 338.53,619.93 617.91,789.53 585.38,355.36 1660.21,278.61 1986.66,-427.34 358.6,-775.35 -1087.94,-826.21 -938.62,-257.22 46.88,178.77 201.57,304.2 289.43,421.85 138.69,185.69 -44.17,312.25 -210.16,368.37 -210.79,71.32 -414.79,60.95 -591.73,-35.77 -131.89,-72.09 -261.48,-230.93 -337.93,-373.39 -505.23,-941.07 207.46,-3016.49 -762.55,-3486.08 -172.63,-83.55 -393.44,-121.79 -610.45,-82.23 -448.34,81.7 -687.88,432.08 -880.37,561.22 0,-262.65 -14.63,-509.57 -14.59,-768.44 0,-249.61 6.37,-465.32 -86.07,-680.18 -429.03,-997.63 -2124.2,-528.55 -2465.9,274.35 -46.72,109.83 -37.11,211.18 3.64,323.3 43.19,118.81 105.28,158.07 154.13,254.12 -1266.86,-43.61 -1855.14,1300.18 -1272.54,2137.84 237.6,341.61 656.07,648.56 1294.23,626.45 278.97,-9.63 552.95,-75.77 738.23,-211.29 153.92,-112.63 322.14,-352.59 337,-628.89l-108.88 25.42c-50.61,292.58 -205.37,525.66 -436.59,607.42 -350.97,124.16 -593.68,-71.53 -780.55,-220.13 -358.13,-284.99 -592.16,-1055.11 -544.06,-1558.03 85.48,-894.28 885.97,-898.17 1001.24,-294.57 34.56,181.22 -18.06,309.82 110.08,421.69 108.23,94.45 272.11,91.9 402.47,20.88 207.96,-113.35 249.38,-370.62 140.69,-549.02 -50.54,-82.9 -70.77,-87.46 -126.13,-146.45 -133.69,-142.51 -468.52,-283.66 -643.23,-418.28 -276.7,-213.19 -132.17,-521.35 59.68,-697.89 164.88,-151.64 402.73,-291.82 684.86,-376.78 246.07,-74.06 722.02,-165.2 798.85,108.55 39.34,140 0.03,334.37 -22.73,470.54 -65.91,395.52 -36.07,2106.32 -36.07,2617.95 0,244.4 51.63,562.76 -88.36,698.54 -52.25,50.73 -96.8,60.1 -120.69,77.19 -34.7,24.86 -25.58,10.25 -44.31,49.19l1321.85 0c-27.62,-35.07 -64.5,-48.55 -106.89,-72.9 -40.9,-23.5 -70.84,-51.76 -96.12,-85.45 -65.26,-87.02 -53.47,-182.93 -53.29,-302.83l-0.04 -1409.7c-1.02,-190.88 -5.17,-159.67 90.93,-265.22 298.55,-327.97 869.37,-658.97 1059.46,-58.87 239.79,756.42 -96.03,1578.01 287.51,2552.55zm-12838.76 -1892.06c3.52,354.2 5.74,715.05 -6.76,967.69 -40.28,25.35 -156.89,137.9 -270.45,213.07 -369.13,244.43 -707.66,188.91 -930.97,-178.09 -346.77,-569.88 -307.97,-1717.58 436.43,-1999 259.89,-98.21 561.8,-50.01 729.38,105.06 10.19,9.44 17.9,18.79 23.82,28.4l0 -1.99c1.58,209.6 3.11,386.98 3.11,502.78 0,113.35 11.06,242.53 9,362.08l6.44 0zm2544.45 -543.07c232.33,19.36 380.84,-12.75 380.84,252.18l0 1455.17c0,270.84 -128.41,276.4 -262.89,374.41l1319.46 0.65c-219.93,-145.52 -259.26,-141.82 -258.94,-481.16l-0.14 -2246.11 -1178.33 644.86zm-6121.51 -1437.25c431.51,28.45 380.71,-10.88 380.71,658.65 0,284.99 15.14,2480.56 -9.14,2591.43 -45.31,206.47 -178.88,193.67 -259.63,270.16l1333.95 -0.11c-168.58,-146.62 -268.2,-39.04 -267.64,-496.79l-1.85 -3531.68c-13.48,-111.75 -120.2,-179.39 -235.72,-114.69 -198.47,111.24 -703.41,474.87 -940.68,623.03zm7558.87 1442.44c293.32,2.96 380.76,-5.95 379.49,307.62l0.18 1364.4c-0.18,338.67 -162.44,310.24 -270.86,404.11l1333.66 1.74c-78.44,-74.29 -169.19,-64.64 -232.67,-191.87 -63.06,-126.45 -32.78,-1066.38 -32.78,-1244.94 0,-141.41 0.46,-282.97 -0.04,-424.4 -0.84,-226.08 2.68,-184.39 124.78,-303.82 93.52,-91.52 323.02,-300.54 505.14,-343.77 644.93,-153.14 596.36,723.62 596.36,1087.2 0,201.45 31.6,1076.59 -36,1231.14 -58.83,134.48 -149.21,106.36 -235.05,190.39l1335.81 -0.09c-80.82,-58.73 -153.91,-68.2 -204.61,-138.09 -62.9,-86.52 -63.03,-157.4 -62.71,-282.76 0.51,-232.44 0.07,-465.01 0.07,-697.46 0,-541.88 30.16,-1284.44 -575.55,-1535.11 -396.77,-164.14 -743.96,-50.79 -1067.93,183.03 -73.41,52.97 -121.86,105.03 -187.22,161.15 -66.65,57.23 -121.44,136.05 -192.08,177.75 -3.14,-142.58 37.05,-474.93 -49.12,-556.03 -111.47,-104.8 -242.11,20.33 -406.18,125.52 -106.23,68.11 -675.48,433.77 -722.69,484.29zm-9162.87 -657.01c-718.11,102.69 -1348.45,737.15 -1221.03,1584.21 36.79,243.94 187.29,558.48 348.74,698.8l191.5 172.1c252.9,210.02 684.65,338.41 1112.45,284.45 1260.48,-159 1685.54,-1701.52 696.99,-2457.68 -278.47,-212.96 -671.57,-347.31 -1128.65,-281.88zm-140.13 97.92c-592.45,165.46 -392.4,1573.43 81.81,2189.69 99.34,129.16 352.63,435.21 648.26,351.89 576.36,-162.47 386.43,-1617.27 -93.43,-2195.29 -115.69,-139.34 -332.98,-431.13 -636.64,-346.29zm-1248.51 2625.2c-65.44,-63.34 -104.92,-43.75 -162.07,-125.94 -45.82,-65.82 -67.47,-138.67 -68.81,-237.59l0 -1182.85c-0.25,-269.78 130.52,-309.57 193.01,-358.33 14.63,-11.36 18.03,-14.79 28.59,-24.72 -760.38,59.31 -467.9,57.62 -1222.74,0.88l55.54 43.73c217.66,134.78 166.08,288.52 166.08,581.03 0,559.46 111.72,1077.05 -525.12,1147.15 -1385.91,152.47 -2035.54,-3265.58 -1105.67,-3849.44 537.37,-337.51 1272.03,310.26 1384.33,942.46 52.76,296.97 -7.16,446.8 205.51,628.74 317.39,271.47 1024.06,18.29 839.76,-566.7 -114.99,-364.83 -486.42,-752.37 -757.84,-909.49 -360.87,-208.91 -916.08,-312.72 -1406.23,-252.55 -881.66,108.21 -1495.59,823.1 -1617.68,1714.6 -130.2,950.44 290.14,1748.23 1084.97,2205.04 413.28,237.5 854.02,273.2 1392.78,246.97 268.96,-13.11 502.87,-62.19 757.46,-82.49 271.23,-21.64 509.19,71.47 758.13,79.5z"/>
 </g>
</svg>
