<svg version="1.2" xmlns="http://www.w3.org/2000/svg" viewBox="0 0 24 24" width="200" height="200">
	<title>form-svg</title>
	<style>
		.s0 { fill: #23a565 } 
	</style>
	<path id="Layer" fill-rule="evenodd" class="s0" d="m20.2 3.9q0.2 0.4 0.4 0.8 0.2 0.5 0.3 1 0.1 0.5 0.1 1v12.3q0 1-0.4 1.9-0.4 0.9-1.1 1.6-0.7 0.7-1.6 1.1-0.9 0.4-1.9 0.4h-8q-1 0-1.9-0.4-0.9-0.4-1.6-1.1-0.7-0.7-1.1-1.6-0.4-0.9-0.4-1.9v-14q0-1 0.4-1.9 0.4-0.9 1.1-1.6 0.7-0.7 1.6-1.1 0.9-0.4 1.9-0.4h6.3q0.5 0 1 0.1 0.5 0.1 1 0.3 0.4 0.2 0.8 0.4 0.4 0.3 0.8 0.7l1.6 1.6q0.4 0.4 0.7 0.8zm-1.2 3.1h-3q-0.4 0-0.8-0.2-0.3-0.1-0.6-0.4-0.3-0.3-0.4-0.6-0.2-0.4-0.2-0.8v-3h-6q-0.6 0-1.1 0.2-0.6 0.3-1 0.7-0.4 0.4-0.7 1-0.2 0.5-0.2 1.1v14q0 0.6 0.2 1.1 0.3 0.6 0.7 1 0.4 0.4 1 0.7 0.5 0.2 1.1 0.2h8q0.6 0 1.1-0.2 0.6-0.3 1-0.7 0.4-0.4 0.7-1 0.2-0.5 0.2-1.1zm-2 12q0 0.2-0.1 0.4-0.1 0.2-0.2 0.3-0.1 0.1-0.3 0.2-0.2 0.1-0.4 0.1h-8q-0.4 0-0.7-0.3-0.3-0.3-0.3-0.7 0-0.4 0.3-0.7 0.3-0.3 0.7-0.3h8q0.2 0 0.4 0.1 0.2 0.1 0.3 0.2 0.1 0.1 0.2 0.3 0.1 0.2 0.1 0.4zm-3-9c0.8 0 1.6 0.3 2.1 0.9 0.6 0.5 0.9 1.3 0.9 2.1 0 0.8-0.3 1.6-0.9 2.1-0.5 0.6-1.3 0.9-2.1 0.9h-4c-0.8 0-1.6-0.3-2.1-0.9-0.6-0.5-0.9-1.3-0.9-2.1 0-0.8 0.3-1.6 0.9-2.1 0.5-0.6 1.3-0.9 2.1-0.9zm2.5-7.1q-0.1-0.1-0.1-0.1-0.1-0.1-0.2-0.1 0-0.1-0.1-0.1 0-0.1-0.1-0.1v2.5h2.5q0-0.1-0.1-0.1 0-0.1-0.1-0.1 0-0.1-0.1-0.2 0 0-0.1-0.1zm-1.5 9.8q-0.1-0.2-0.2-0.3-0.2-0.2-0.4-0.3-0.1 0-0.3 0h-4q-0.5 0-0.7 0.3-0.3 0.2-0.3 0.7 0 0.4 0.3 0.7 0.2 0.3 0.7 0.3h4q0.2 0 0.3-0.1 0.2-0.1 0.4-0.2 0.1-0.2 0.2-0.4 0.1-0.1 0.1-0.3 0-0.2-0.1-0.4z"/>
</svg>