<?xml version="1.0" encoding="UTF-8" standalone="no"?>
<!-- Created with Inkscape (http://www.inkscape.org/) -->

<svg
   version="1.1"
   id="svg2"
   width="328.29333"
   height="87.746666"
   viewBox="0 0 328.29333 87.746666"
   sodipodi:docname="gumtree.eps"
   xmlns:inkscape="http://www.inkscape.org/namespaces/inkscape"
   xmlns:sodipodi="http://sodipodi.sourceforge.net/DTD/sodipodi-0.dtd"
   xmlns="http://www.w3.org/2000/svg"
   xmlns:svg="http://www.w3.org/2000/svg">
  <defs
     id="defs6" />
  <sodipodi:namedview
     id="namedview4"
     pagecolor="#ffffff"
     bordercolor="#000000"
     borderopacity="0.25"
     inkscape:showpageshadow="2"
     inkscape:pageopacity="0.0"
     inkscape:pagecheckerboard="0"
     inkscape:deskcolor="#d1d1d1" />
  <g
     id="g8"
     inkscape:groupmode="layer"
     inkscape:label="ink_ext_XXXXXX"
     transform="matrix(1.3333333,0,0,-1.3333333,0,87.746667)">
    <g
       id="g10"
       transform="scale(0.1)">
      <path
         d="m 447.91,481.313 c -5.238,3.925 -7.855,9.171 -9.164,15.722 -7.855,90.363 -83.824,161.086 -176.808,161.086 -92.989,0 -168.9536,-70.723 -176.8091,-162.394 0,-6.551 -3.9258,-11.797 -9.1719,-15.723 C 30.1211,448.57 0,394.879 0,334.633 0,252.109 56.3203,182.703 132.281,163.059 v 0 c 13.094,-3.926 26.188,-5.239 31.43,-2.621 9.164,5.246 20.953,49.765 15.715,58.937 -2.617,5.242 -15.715,10.477 -28.817,13.098 v 0 c -44.531,11.785 -77.2652,52.39 -77.2652,100.843 0,27.508 10.4765,51.082 27.5082,70.723 7.855,7.859 17.019,15.723 26.183,20.957 19.649,10.488 30.121,31.434 30.121,53.699 v 0 c 0,11.789 1.313,22.266 5.246,32.746 13.094,41.914 53.692,72.032 99.536,72.032 45.839,0 86.437,-30.118 99.531,-72.032 3.937,-10.48 5.246,-20.957 5.246,-32.746 v 0 c 0,-22.265 11.785,-41.902 30.121,-53.699 10.473,-5.234 18.34,-13.098 26.195,-20.957 17.024,-18.332 27.496,-43.215 27.496,-70.723 0,-57.625 -47.144,-104.781 -104.769,-104.781 -66.793,0 -120.488,-55 -120.488,-121.797 V 37.3242 c 0,-13.0976 1.308,-27.49998 5.234,-31.42576 7.855,-7.86328 53.699,-7.86328 61.559,0 3.921,3.92578 5.242,17.02346 5.242,31.42576 v 0 70.7228 c 0,26.191 20.949,47.148 47.144,47.148 98.223,0 178.114,79.895 178.114,178.121 1.308,61.563 -28.813,115.254 -74.653,147.997 v 0"
         style="fill:#9c9c9c;fill-opacity:1;fill-rule:nonzero;stroke:none"
         id="path12" />
      <path
         d="m 1235.04,193.176 h -53.69 v 18.34 c -17.03,-17.024 -37.99,-24.883 -64.18,-24.883 -24.89,0 -44.53,7.859 -58.94,23.57 -14.4,15.715 -22.26,36.672 -22.26,61.555 v 124.43 h 53.69 V 282.246 c 0,-14.414 3.93,-26.199 11.8,-35.371 7.85,-9.172 17.02,-13.098 30.11,-13.098 34.06,0 51.09,23.575 51.09,70.727 v 90.375 h 53.69 V 193.176 h -1.31"
         style="fill:#9c9c9c;fill-opacity:1;fill-rule:nonzero;stroke:none"
         id="path14" />
      <path
         d="m 1589.96,380.473 c 15.72,-15.723 23.57,-35.371 23.57,-60.243 V 191.863 h -53.69 V 308.43 c 0,13.109 -3.93,23.578 -11.78,32.758 -7.87,7.851 -17.03,11.777 -28.81,11.777 -14.41,0 -26.21,-5.246 -35.37,-15.715 -7.85,-10.477 -13.1,-26.203 -13.1,-47.152 v -98.235 h -53.7 V 308.43 c 0,13.109 -3.92,23.578 -11.77,32.758 -7.87,7.851 -17.03,11.777 -28.83,11.777 -14.4,0 -26.19,-5.246 -34.04,-15.715 -7.87,-10.477 -11.78,-26.203 -11.78,-47.152 v -98.235 h -53.71 v 205.633 h 53.71 v -17.023 c 15.7,15.715 35.35,23.566 61.54,23.566 30.12,0 52.4,-11.777 66.8,-34.043 18.34,22.266 43.2,34.043 74.65,34.043 22.26,0 40.58,-7.851 56.31,-23.566 v 0"
         style="fill:#9c9c9c;fill-opacity:1;fill-rule:nonzero;stroke:none"
         id="path16" />
      <path
         d="m 1820.46,202.344 c -18.32,-10.481 -36.66,-15.711 -53.69,-15.711 -24.88,0 -44.51,6.543 -58.92,20.957 -14.42,13.094 -20.96,34.051 -20.96,61.551 v 85.132 h -44.53 v 44.532 h 44.53 v 61.562 h 53.69 v -61.562 h 66.8 v -44.532 h -66.8 v -81.207 c 0,-23.574 10.49,-35.363 30.12,-35.363 10.49,0 22.26,3.938 34.06,10.481 l 15.7,-45.84 v 0"
         style="fill:#9c9c9c;fill-opacity:1;fill-rule:nonzero;stroke:none"
         id="path18" />
      <path
         d="m 1998.59,398.805 -2.62,-52.395 h -11.8 c -48.45,0 -73.32,-28.812 -73.32,-87.75 v -65.484 h -53.71 v 204.32 h 53.71 v -37.98 c 18.32,26.191 43.21,40.605 73.32,40.605 6.57,0 11.8,0 14.42,-1.316 v 0"
         style="fill:#9c9c9c;fill-opacity:1;fill-rule:nonzero;stroke:none"
         id="path20" />
      <path
         d="m 2087.65,346.41 c -9.18,-6.543 -15.72,-15.711 -19.65,-27.504 h 99.53 c -3.92,13.102 -9.16,22.282 -18.32,28.813 -9.18,6.554 -18.34,9.179 -30.13,9.179 -11.78,0 -22.27,-3.933 -31.43,-10.488 z m 134.9,-65.48 h -155.86 c 2.62,-14.407 9.18,-26.196 18.32,-34.055 9.18,-9.172 20.98,-13.098 32.76,-13.098 23.57,0 40.6,9.172 51.07,27.5 l 48.46,-10.476 c -9.16,-20.949 -22.25,-36.668 -39.28,-47.141 -17.03,-10.484 -37.99,-15.722 -60.25,-15.722 -30.12,0 -55,10.48 -74.65,30.128 -19.65,19.637 -30.14,45.84 -30.14,78.575 0,31.441 10.49,57.632 30.14,78.589 20.96,20.958 45.84,30.118 75.96,30.118 27.52,0 52.38,-9.16 72.05,-28.809 19.63,-19.641 30.12,-44.531 31.42,-75.965 v -19.644 0"
         style="fill:#9c9c9c;fill-opacity:1;fill-rule:nonzero;stroke:none"
         id="path22" />
      <path
         d="m 2327.32,346.41 c -9.18,-6.543 -15.7,-15.711 -19.63,-27.504 h 99.51 c -3.92,13.102 -9.16,22.282 -18.32,28.813 -9.16,6.554 -18.34,9.179 -30.13,9.179 -11.78,0 -22.25,-3.933 -31.43,-10.488 z m 134.9,-65.48 h -155.84 c 2.62,-14.407 9.14,-26.196 18.32,-34.055 9.16,-9.172 20.96,-13.098 32.74,-13.098 23.59,0 40.6,9.172 51.07,27.5 l 48.48,-10.476 c -9.18,-20.949 -22.29,-36.668 -39.3,-47.141 -17.03,-10.484 -37.97,-15.722 -60.25,-15.722 -30.12,0 -55,10.48 -74.65,30.128 -19.63,19.637 -30.12,45.84 -30.12,78.575 0,31.441 10.49,57.632 30.12,78.589 20.96,20.958 45.84,30.118 75.96,30.118 27.51,0 52.4,-9.16 72.05,-28.809 19.62,-19.641 30.11,-44.531 31.42,-75.965 v -19.644 0"
         style="fill:#9c9c9c;fill-opacity:1;fill-rule:nonzero;stroke:none"
         id="path24" />
      <path
         d="m 846.063,352.965 v -51.078 h 91.671 c -5.234,-19.641 -14.406,-35.364 -28.808,-47.153 -14.41,-11.785 -32.738,-17.031 -53.696,-17.031 -26.199,0 -47.156,9.172 -65.484,26.203 -17.031,17.024 -26.199,39.285 -26.199,65.485 0,26.199 7.859,47.148 24.891,65.488 17.023,17.019 37.98,26.191 62.867,26.191 35.355,0 61.55,-13.097 78.578,-40.597 l 45.84,30.117 c -10.481,17.023 -23.575,31.437 -41.914,41.914 -23.571,14.406 -51.075,20.957 -81.196,20.957 -40.605,0 -74.66,-14.402 -102.16,-41.914 -27.504,-27.508 -43.219,-61.551 -43.219,-100.848 0,-40.601 14.407,-74.652 41.907,-102.164 28.812,-27.5 62.867,-41.902 103.472,-41.902 40.594,0 73.34,13.094 99.535,40.594 26.192,27.507 39.29,61.562 39.29,102.164 0,6.55 0,14.414 -1.309,23.574 H 846.063 v 0"
         style="fill:#9c9c9c;fill-opacity:1;fill-rule:nonzero;stroke:none"
         id="path26" />
    </g>
  </g>
</svg>
