<svg id="Export" xmlns="http://www.w3.org/2000/svg" xmlns:xlink="http://www.w3.org/1999/xlink" viewBox="0 0 240 90"><defs><style>.cls-1{fill:#fff;}.cls-2{fill:#1f7144;}.cls-3{fill:url(#radial-gradient);}.cls-4{fill:url(#radial-gradient-2);}.cls-5{fill:url(#radial-gradient-3);}.cls-6{fill:url(#radial-gradient-4);}.cls-7{fill:url(#radial-gradient-5);}.cls-8{fill:url(#radial-gradient-6);}.cls-9{fill:url(#radial-gradient-7);}.cls-10{fill:url(#radial-gradient-8);}.cls-11{fill:url(#radial-gradient-9);}.cls-12{fill:url(#radial-gradient-10);}.cls-13{fill:url(#radial-gradient-11);}.cls-14{fill:url(#radial-gradient-12);}.cls-15{fill:url(#radial-gradient-13);}.cls-16{fill:url(#radial-gradient-14);}.cls-17{fill:url(#radial-gradient-15);}.cls-18{fill:url(#radial-gradient-16);}.cls-19{fill:url(#radial-gradient-17);}.cls-20{fill:url(#radial-gradient-18);}.cls-21{fill:url(#radial-gradient-19);}.cls-22{fill:url(#radial-gradient-20);}.cls-23{fill:url(#radial-gradient-21);}.cls-24{fill:url(#radial-gradient-22);}.cls-25{fill:url(#radial-gradient-23);}.cls-26{fill:url(#radial-gradient-24);}</style><radialGradient id="radial-gradient" cx="11" cy="-54.38" r="19.14" gradientTransform="matrix(1.29, 0, 0, -2.49, 7.35, -89.53)" gradientUnits="userSpaceOnUse"><stop offset="0" stop-color="#237f4c"/><stop offset="1" stop-color="#1e6c41"/></radialGradient><radialGradient id="radial-gradient-2" cx="118.99" cy="34.04" r="9.49" gradientTransform="matrix(1, 0, 0, 1, 0, 0)" xlink:href="#radial-gradient"/><radialGradient id="radial-gradient-3" cx="118.99" cy="34.04" r="9.19" gradientTransform="matrix(1, 0, 0, 1, 0, 0)" xlink:href="#radial-gradient"/><radialGradient id="radial-gradient-4" cx="133.86" cy="33.64" r="7.03" gradientTransform="matrix(1, 0, 0, 1, 0, 0)" xlink:href="#radial-gradient"/><radialGradient id="radial-gradient-5" cx="133.86" cy="33.64" r="6.79" gradientTransform="matrix(1, 0, 0, 1, 0, 0)" xlink:href="#radial-gradient"/><radialGradient id="radial-gradient-6" cx="143.08" cy="36.64" r="6.22" gradientTransform="matrix(1, 0, 0, 1, 0, 0)" xlink:href="#radial-gradient"/><radialGradient id="radial-gradient-7" cx="143.08" cy="36.64" r="5.92" gradientTransform="matrix(1, 0, 0, 1, 0, 0)" xlink:href="#radial-gradient"/><radialGradient id="radial-gradient-8" cx="154.48" cy="36.53" r="5.54" gradientTransform="matrix(1, 0, 0, 1, 0, 0)" xlink:href="#radial-gradient"/><radialGradient id="radial-gradient-9" cx="154.48" cy="36.53" r="5.26" gradientTransform="matrix(1, 0, 0, 1, 0, 0)" xlink:href="#radial-gradient"/><radialGradient id="radial-gradient-10" cx="165.29" cy="36.64" r="6.9" gradientTransform="matrix(1, 0, 0, 1, 0, 0)" xlink:href="#radial-gradient"/><radialGradient id="radial-gradient-11" cx="165.29" cy="36.64" r="6.6" gradientTransform="matrix(1, 0, 0, 1, 0, 0)" xlink:href="#radial-gradient"/><radialGradient id="radial-gradient-12" cx="178.54" cy="36.64" r="5.99" gradientTransform="matrix(1, 0, 0, 1, 0, 0)" xlink:href="#radial-gradient"/><radialGradient id="radial-gradient-13" cx="178.54" cy="36.64" r="5.7" gradientTransform="matrix(1, 0, 0, 1, 0, 0)" xlink:href="#radial-gradient"/><radialGradient id="radial-gradient-14" cx="191.56" cy="36.64" r="6.9" gradientTransform="matrix(1, 0, 0, 1, 0, 0)" xlink:href="#radial-gradient"/><radialGradient id="radial-gradient-15" cx="191.56" cy="36.64" r="6.6" gradientTransform="matrix(1, 0, 0, 1, 0, 0)" xlink:href="#radial-gradient"/><radialGradient id="radial-gradient-16" cx="203.31" cy="33.38" r="7.72" gradientTransform="matrix(1, 0, 0, 1, 0, 0)" xlink:href="#radial-gradient"/><radialGradient id="radial-gradient-17" cx="203.31" cy="33.38" r="7.44" gradientTransform="matrix(1, 0, 0, 1, 0, 0)" xlink:href="#radial-gradient"/><radialGradient id="radial-gradient-18" cx="211.66" cy="34.8" r="6.94" gradientTransform="matrix(1, 0, 0, 1, 0, 0)" xlink:href="#radial-gradient"/><radialGradient id="radial-gradient-19" cx="211.66" cy="34.86" r="6.62" gradientTransform="matrix(1, 0, 0, 1, 0, 0)" xlink:href="#radial-gradient"/><radialGradient id="radial-gradient-20" cx="114.54" cy="58.04" r="7.28" gradientTransform="matrix(1, 0, 0, 1, 0, 0)" xlink:href="#radial-gradient"/><radialGradient id="radial-gradient-21" cx="126.44" cy="60.64" r="6.08" gradientTransform="matrix(1, 0, 0, 1, 0, 0)" xlink:href="#radial-gradient"/><radialGradient id="radial-gradient-22" cx="138.31" cy="60.64" r="5.92" gradientTransform="matrix(1, 0, 0, 1, 0, 0)" xlink:href="#radial-gradient"/><radialGradient id="radial-gradient-23" cx="151.11" cy="60.64" r="6.26" gradientTransform="matrix(1, 0, 0, 1, 0, 0)" xlink:href="#radial-gradient"/><radialGradient id="radial-gradient-24" cx="160.96" cy="57.52" r="6.84" gradientTransform="matrix(1, 0, 0, 1, 0, 0)" xlink:href="#radial-gradient"/></defs><title>microsoft-excel_240x90_web</title><rect id="rect4556" class="cls-1" x="24.84" y="20.9" width="62.89" height="49.32" rx="1.24"/><g id="use3985"><path id="rect3991" class="cls-2" d="M58.12,58.77H68.85v5.51H58.12Zm12.93,0H81.78v5.5H71.05Zm-12.93-8H68.85v5.77H58.12Zm12.93,0H81.78v5.77H71.05Zm-12.93-8H68.85v5.78H58.12Zm12.93,0H81.78v5.78H71.05Zm-12.93-8H68.85V40.6H58.12Zm12.93,0H81.78V40.6H71.05Zm-12.93-8H68.85v5.78H58.12Zm12.93,0H81.78v5.78H71.05Zm-13.3-6.59v2.19h28.7V68.94H57.75v2.2H86.27a2.4,2.4,0,0,0,2.4-2.39V22.66a2.4,2.4,0,0,0-2.4-2.4Z"/></g><path id="path3945" class="cls-3" d="M59.8,14l-38.28,6.8V70.6l38.26,6.91ZM47.56,34.46,42.08,45.72l5.63,11.34-5.09-.3-3.34-8.3L36,56.38l-4.48-.25,5.26-10.41-5-10.52L36.63,35l2.82,7.67,3.39-8Z"/><path class="cls-4" d="M125.85,43.44V30.93c0-.42,0-.88,0-1.38l-6.18,13.89h-1.43l-6.22-13.91c0,.43,0,.91,0,1.43V43.44h-2.66V24.64h3.32l5.66,12.87c.26.59.47,1.09.62,1.5.25-.66.46-1.18.62-1.55l5.78-12.82h3.16v18.8Z"/><path class="cls-5" d="M128.27,43.14h-2.12V30.93q0-1.44.18-3.54h0a9.83,9.83,0,0,1-.55,1.76l-6.22,14h-1l-6.21-13.88a11.24,11.24,0,0,1-.54-1.87h0c.06.73.1,1.92.1,3.57V43.14h-2.06V24.94h2.82l5.59,12.69a15.69,15.69,0,0,1,.83,2.19H119c.37-1,.66-1.75.88-2.24l5.7-12.64h2.66Z"/><path class="cls-6" d="M132.48,43.44V29.84h2.68v13.6Zm1.37-16.3a1.59,1.59,0,0,1-1.16-.46,1.55,1.55,0,0,1-.49-1.18,1.62,1.62,0,0,1,1.65-1.66,1.66,1.66,0,0,1,1.18.47,1.61,1.61,0,0,1,.49,1.19,1.58,1.58,0,0,1-.49,1.16A1.63,1.63,0,0,1,133.85,27.14Z"/><path class="cls-7" d="M133.85,26.84a1.31,1.31,0,0,1-1-.38,1.27,1.27,0,0,1-.39-1,1.3,1.3,0,0,1,.39-1,1.32,1.32,0,0,1,1-.39,1.34,1.34,0,0,1,1,.39,1.35,1.35,0,0,1,0,1.92A1.34,1.34,0,0,1,133.85,26.84Zm1,16.3h-2.08v-13h2.08Z"/><path class="cls-8" d="M144.38,43.75a6.19,6.19,0,0,1-4.7-1.9,6.88,6.88,0,0,1-1.79-4.9,7.52,7.52,0,0,1,1.92-5.37,6.78,6.78,0,0,1,5.13-2,7.15,7.15,0,0,1,3.15.66l.17.09v2.89l-.47-.33a5,5,0,0,0-2.92-1,3.89,3.89,0,0,0-3.05,1.33,5.14,5.14,0,0,0-1.2,3.55,4.91,4.91,0,0,0,1.12,3.4,3.81,3.81,0,0,0,3,1.23,5,5,0,0,0,3-1.07l.48-.37v2.76l-.15.08A7.06,7.06,0,0,1,144.38,43.75Z"/><path class="cls-9" d="M147.94,42.55a6.8,6.8,0,0,1-3.56.9,5.85,5.85,0,0,1-4.48-1.81A6.56,6.56,0,0,1,138.19,37,7.2,7.2,0,0,1,140,31.79a6.43,6.43,0,0,1,4.91-1.95,6.88,6.88,0,0,1,3,.63v2.14a5.25,5.25,0,0,0-3.09-1A4.19,4.19,0,0,0,141.6,33a5.41,5.41,0,0,0-1.28,3.75,5.18,5.18,0,0,0,1.2,3.61,4.13,4.13,0,0,0,3.22,1.32,5.25,5.25,0,0,0,3.2-1.13Z"/><path class="cls-10" d="M150.79,43.44V29.84h2.68v1.7a4.23,4.23,0,0,1,.91-1.09,3.46,3.46,0,0,1,2.24-.83,3.55,3.55,0,0,1,1.36.2l.19.07v3l-.49-.37a2.24,2.24,0,0,0-1.39-.36,2.35,2.35,0,0,0-2,1.13,5.56,5.56,0,0,0-.84,3.26v6.92Z"/><path class="cls-11" d="M157.87,32.25a2.56,2.56,0,0,0-1.58-.42,2.66,2.66,0,0,0-2.23,1.26,5.87,5.87,0,0,0-.89,3.43v6.62h-2.08v-13h2.08v2.68h.05a4.63,4.63,0,0,1,1.36-2.14,3.1,3.1,0,0,1,2-.76,3.44,3.44,0,0,1,1.25.17Z"/><path class="cls-12" d="M165.22,43.75a6.35,6.35,0,0,1-4.82-1.92,7,7,0,0,1-1.81-5,7.37,7.37,0,0,1,1.88-5.33,6.77,6.77,0,0,1,5.05-1.93,6.11,6.11,0,0,1,4.76,1.89A7.37,7.37,0,0,1,172,36.59a7.3,7.3,0,0,1-1.84,5.19A6.44,6.44,0,0,1,165.22,43.75Zm.15-11.86a3.65,3.65,0,0,0-3,1.26,5.38,5.38,0,0,0-1.09,3.57,5,5,0,0,0,1.1,3.44,3.72,3.72,0,0,0,2.94,1.24,3.51,3.51,0,0,0,2.87-1.2,5.38,5.38,0,0,0,1-3.53,5.48,5.48,0,0,0-1-3.57A3.49,3.49,0,0,0,165.37,31.89Z"/><path class="cls-13" d="M165.22,43.45a6.07,6.07,0,0,1-4.61-1.82,6.79,6.79,0,0,1-1.72-4.83,7,7,0,0,1,1.79-5.12,6.44,6.44,0,0,1,4.84-1.84,5.85,5.85,0,0,1,4.54,1.79,7.08,7.08,0,0,1,1.63,5,7,7,0,0,1-1.76,5A6.17,6.17,0,0,1,165.22,43.45Zm.15-11.86A4,4,0,0,0,162.19,33,5.64,5.64,0,0,0,161,36.72a5.28,5.28,0,0,0,1.18,3.64,4,4,0,0,0,3.16,1.34,3.81,3.81,0,0,0,3.1-1.31,5.63,5.63,0,0,0,1.09-3.72,5.73,5.73,0,0,0-1.09-3.76A3.78,3.78,0,0,0,165.37,31.59Z"/><path class="cls-14" d="M177.71,43.75a7.67,7.67,0,0,1-3.62-.81l-.16-.08v-3l.48.35A5.91,5.91,0,0,0,178,41.4c2.18,0,2.44-.88,2.44-1.53a1.25,1.25,0,0,0-.19-.72,2,2,0,0,0-.55-.56,4.93,4.93,0,0,0-.89-.47l-1.15-.46a13.51,13.51,0,0,1-1.55-.71,4.74,4.74,0,0,1-1.16-.84A3.27,3.27,0,0,1,174.2,35,3.91,3.91,0,0,1,174,33.6a3.36,3.36,0,0,1,.46-1.77,4,4,0,0,1,1.2-1.28,5.42,5.42,0,0,1,1.69-.76,7.22,7.22,0,0,1,1.92-.25,7.68,7.68,0,0,1,3.14.61l.18.08v2.86l-.46-.31a5.63,5.63,0,0,0-3.14-.89,3.63,3.63,0,0,0-1,.12,2.22,2.22,0,0,0-.71.33,1.66,1.66,0,0,0-.44.48,1.33,1.33,0,0,0-.14.6,1.49,1.49,0,0,0,.15.71,1.54,1.54,0,0,0,.45.51,4.56,4.56,0,0,0,.8.45l1.15.46c.58.23,1.11.46,1.57.69a5.6,5.6,0,0,1,1.24.84,3.34,3.34,0,0,1,.81,1.1,3.6,3.6,0,0,1,.29,1.49,3.53,3.53,0,0,1-.47,1.83,3.83,3.83,0,0,1-1.23,1.27,5.52,5.52,0,0,1-1.73.74A8.26,8.26,0,0,1,177.71,43.75Z"/><path class="cls-15" d="M174.23,42.67V40.44A6.14,6.14,0,0,0,178,41.7c1.82,0,2.74-.61,2.74-1.83a1.54,1.54,0,0,0-.24-.88,2.25,2.25,0,0,0-.63-.64,4.89,4.89,0,0,0-.94-.51l-1.16-.46a16,16,0,0,1-1.52-.69,4.44,4.44,0,0,1-1.09-.79,2.91,2.91,0,0,1-.66-1,3.44,3.44,0,0,1-.22-1.3,3.2,3.2,0,0,1,.41-1.62,3.82,3.82,0,0,1,1.12-1.18,5.24,5.24,0,0,1,1.59-.72,7.17,7.17,0,0,1,1.85-.24,7.43,7.43,0,0,1,3,.58v2.11a5.83,5.83,0,0,0-3.3-.94,4.19,4.19,0,0,0-1,.13,2.76,2.76,0,0,0-.81.38,1.69,1.69,0,0,0-.52.58,1.53,1.53,0,0,0-.18.74,1.65,1.65,0,0,0,.72,1.46,4,4,0,0,0,.87.48c.33.15.72.3,1.15.47a16.62,16.62,0,0,1,1.55.68,5.2,5.2,0,0,1,1.17.79,3,3,0,0,1,.74,1,3.3,3.3,0,0,1,.26,1.36,3.21,3.21,0,0,1-.42,1.67,3.67,3.67,0,0,1-1.14,1.18,5.28,5.28,0,0,1-1.64.7,8.18,8.18,0,0,1-1.94.23A7.33,7.33,0,0,1,174.23,42.67Z"/><path class="cls-16" d="M191.48,43.75a6.35,6.35,0,0,1-4.82-1.92,7.07,7.07,0,0,1-1.8-5,7.33,7.33,0,0,1,1.88-5.33,6.74,6.74,0,0,1,5-1.93,6.13,6.13,0,0,1,4.76,1.89,7.42,7.42,0,0,1,1.71,5.16,7.3,7.3,0,0,1-1.84,5.19A6.48,6.48,0,0,1,191.48,43.75Zm.16-11.86a3.63,3.63,0,0,0-2.95,1.26,5.33,5.33,0,0,0-1.1,3.57,5,5,0,0,0,1.11,3.44,3.69,3.69,0,0,0,2.94,1.24,3.51,3.51,0,0,0,2.87-1.2,5.44,5.44,0,0,0,1-3.53,5.54,5.54,0,0,0-1-3.57A3.49,3.49,0,0,0,191.64,31.89Z"/><path class="cls-17" d="M191.48,43.45a6,6,0,0,1-4.6-1.82,6.75,6.75,0,0,1-1.72-4.83A7,7,0,0,1,187,31.68a6.43,6.43,0,0,1,4.84-1.84,5.85,5.85,0,0,1,4.54,1.79,7.13,7.13,0,0,1,1.63,5,7,7,0,0,1-1.76,5A6.2,6.2,0,0,1,191.48,43.45Zm.16-11.86A4,4,0,0,0,188.46,33a5.59,5.59,0,0,0-1.17,3.76,5.33,5.33,0,0,0,1.18,3.64,4,4,0,0,0,3.17,1.34,3.81,3.81,0,0,0,3.1-1.31,5.69,5.69,0,0,0,1.08-3.72,5.79,5.79,0,0,0-1.08-3.76A3.78,3.78,0,0,0,191.64,31.59Z"/><path class="cls-18" d="M201.3,43.44V32.22h-2.22V29.84h2.22V28a4.71,4.71,0,0,1,1.27-3.45,4.79,4.79,0,0,1,4.78-1l.19.08v2.59l-.45-.25a2.51,2.51,0,0,0-1.24-.31c-.8,0-1.88.26-1.88,2.46v1.7H207v2.38H204V43.44Z"/><path class="cls-19" d="M207.24,25.73a2.79,2.79,0,0,0-1.39-.35c-1.45,0-2.18.92-2.18,2.76v2h3.05v1.78h-3.05V43.14H201.6V31.92h-2.22V30.14h2.22V28a4.35,4.35,0,0,1,1.18-3.23,4.48,4.48,0,0,1,4.46-1Z"/><path class="cls-20" d="M213.51,43.72c-2.43,0-3.72-1.42-3.72-4.11V32.22h-2.23V29.84h2.23V26.75l2.69-.86v3.95h3.27v2.38h-3.27v7a2.75,2.75,0,0,0,.38,1.68,1.51,1.51,0,0,0,1.23.44,1.87,1.87,0,0,0,1.18-.37l.48-.36v2.55l-.15.09A4.41,4.41,0,0,1,213.51,43.72Z"/><path class="cls-21" d="M215.45,43a4,4,0,0,1-1.94.4q-3.42,0-3.42-3.81V31.92h-2.23V30.14h2.23V27l2.09-.67v3.84h3.27v1.78h-3.27v7.33a3,3,0,0,0,.44,1.86,1.76,1.76,0,0,0,1.47.56,2.17,2.17,0,0,0,1.36-.43Z"/><path class="cls-22" d="M119.36,67.14h-9.65V48.94H119v1.93h-7.1v6.05h6.57v1.92h-6.57v6.37h7.51Z"/><path class="cls-23" d="M132.08,54.14l-4.37,6.58,4.3,6.42h-2.43L127,62.93q-.24-.39-.57-1h0c0,.07-.24.4-.6,1l-2.6,4.21h-2.4l4.43-6.37L121,54.14h2.42l2.52,4.45c.18.33.37.67.54,1h0l3.25-5.46Z"/><path class="cls-24" d="M143.18,66.55a6.8,6.8,0,0,1-3.56.9,5.92,5.92,0,0,1-4.49-1.81,6.59,6.59,0,0,1-1.7-4.69,7.2,7.2,0,0,1,1.84-5.16,6.43,6.43,0,0,1,4.91-1.95,6.88,6.88,0,0,1,3,.63v2.14a5.25,5.25,0,0,0-3.1-1A4.19,4.19,0,0,0,136.84,57a5.41,5.41,0,0,0-1.28,3.75,5.18,5.18,0,0,0,1.2,3.61A4.13,4.13,0,0,0,140,65.7a5.25,5.25,0,0,0,3.2-1.13Z"/><path class="cls-25" d="M156.77,61.16H147.6a4.89,4.89,0,0,0,1.16,3.36,4.07,4.07,0,0,0,3.08,1.18,6.39,6.39,0,0,0,4-1.45v2a7.53,7.53,0,0,1-4.53,1.25A5.49,5.49,0,0,1,147,65.68a7.25,7.25,0,0,1-1.57-5,7.08,7.08,0,0,1,1.72-4.94,5.52,5.52,0,0,1,4.27-1.91,4.89,4.89,0,0,1,3.95,1.65,6.88,6.88,0,0,1,1.39,4.58Zm-2.13-1.76a4.27,4.27,0,0,0-.87-2.81,3,3,0,0,0-2.38-1,3.38,3.38,0,0,0-2.5,1,4.8,4.8,0,0,0-1.27,2.76Z"/><path class="cls-26" d="M162,67.14h-2.08V47.9H162Z"/></svg>