<svg xmlns="http://www.w3.org/2000/svg" xmlns:xlink="http://www.w3.org/1999/xlink" version="1.1" id="layer" x="0px" y="0px" style="enable-background:new -153 -46 652 652;" xml:space="preserve" viewBox="-132 214.2 600.2 121.8">
<style type="text/css">
	.st0{fill:#9c9c9c;}
	.st1{fill:#9c9c9c;}
</style>
<path class="st0" d="M448.6,281.1h10.3v-31.4l-28.3-23.7l-28.3,23.7v31.4h10.3l18.1-15.2C430.7,265.9,448.6,281.1,448.6,281.1z   M460.1,290.1h-14.8l-14.7-12.4l-14.8,12.4H401c-4.2,0-7.7-3.4-7.7-7.6c0-0.1,0-0.1,0-0.2l0.1-33.2c0-2.1,0.8-4,2.3-5.5l0.3-0.3  l34.7-29.1l35.1,29.4c1.4,1.4,2.3,3.4,2.3,5.5l0.1,33.2c0,2.1-0.8,4-2.3,5.5C464.3,289.4,462.2,290.1,460.1,290.1z"/>
<path class="st1" d="M174,257.5c-3.5,0-6.9,0.6-10.2,1.9c-3.1,1.2-6,3.1-8.3,5.5c-0.7-0.9-1.5-1.8-2.4-2.6c-1-0.9-2.1-1.7-3.5-2.4  c-1.4-0.8-2.9-1.4-4.5-1.8c-1.8-0.5-3.7-0.6-5.9-0.6c-3.6,0-6.8,0.6-9.4,2c-2.6,1.4-4.9,3-6.6,5.1l-0.6-5.9h-16.2v53.1h17v-28.5  c0-3.4,1-6.2,3-8.3c2-2.2,4.6-3.3,7.9-3.3c2.9,0,5.1,0.9,6.5,2.6c1.4,1.8,2.2,4.2,2.2,7.4v30.2h16.4v-28.5c0-3.4,1-6.2,3-8.3  c1.9-2.2,4.6-3.3,7.9-3.3c2.9,0,5.1,0.9,6.5,2.6c1.4,1.8,2.2,4.2,2.2,7.4v30.2h17v-32.8c0-6.7-1.8-11.9-5.6-15.7  C186.5,259.4,181.1,257.5,174,257.5z M243.6,290.5c-0.6,1.7-1.4,3.2-2.6,4.6c-1.2,1.4-2.6,2.4-4.2,3.2c-1.8,0.8-3.7,1.2-5.6,1.2  c-2,0-3.9-0.4-5.7-1.2c-1.6-0.7-3-1.8-4.2-3.2c-1.1-1.4-2-2.9-2.6-4.6c-0.6-1.7-0.9-3.5-0.9-5.3c0-1.8,0.3-3.5,0.9-5.3  c0.6-1.7,1.4-3.2,2.6-4.5c1.1-1.3,2.5-2.4,4.2-3.2c1.8-0.8,3.7-1.2,5.7-1.2c2.1,0,4,0.4,5.6,1.2c1.7,0.8,3.1,1.8,4.2,3.2  c1.1,1.3,2,2.8,2.6,4.5c0.6,1.7,0.8,3.4,0.8,5.3C244.4,287,244.2,288.8,243.6,290.5z M252.6,265.2c-2.6-2.6-5.7-4.6-9.3-6.1  c-3.8-1.5-7.9-2.3-12.1-2.2c-4.4,0-8.4,0.7-12.1,2.2c-3.5,1.4-6.7,3.5-9.4,6.1c-2.6,2.6-4.7,5.6-6.1,9c-1.5,3.5-2.2,7.3-2.2,11.1  c0,3.9,0.7,7.6,2.2,11.1c1.4,3.4,3.5,6.4,6.1,9c2.6,2.6,5.7,4.6,9.4,6.1c3.6,1.5,7.7,2.2,12.1,2.2c4.3,0,8.4-0.7,12.1-2.2  c3.6-1.5,6.8-3.5,9.3-6.1c2.6-2.6,4.6-5.5,6-9c1.5-3.5,2.2-7.3,2.2-11.1c0-3.9-0.7-7.6-2.2-11.1  C257.2,270.8,255.2,267.8,252.6,265.2z M303.1,258.7l-12.6,34.9l-13.1-34.9h-18.9l23.3,53.1h16.1l23.7-53.1H303.1z M335.8,279.6  c0-1.1,0.2-2.2,0.8-3.4c0.5-1.2,1.3-2.2,2.3-3.2c1-1,2.3-1.8,3.7-2.4c1.5-0.6,3.2-1,5.2-1c1.9,0,3.6,0.3,5.1,1  c1.5,0.6,2.6,1.4,3.5,2.4c1,1,1.7,2.1,2.1,3.2c0.5,1.2,0.7,2.3,0.7,3.5L335.8,279.6L335.8,279.6z M375.2,287.4  c0-4.5-0.6-8.6-1.8-12.3c-1.2-3.8-2.9-7-5.2-9.6c-2.3-2.7-5.3-4.8-8.5-6.3c-3.4-1.5-7.3-2.2-11.8-2.2s-8.5,0.8-12.1,2.3  c-6.7,2.8-12,8.3-14.6,15.2c-1.3,3.4-1.9,7-1.9,10.7c0,4.2,0.7,8.1,2.1,11.6c1.3,3.4,3.4,6.5,6,9c2.7,2.5,5.9,4.4,9.6,5.9  c3.8,1.4,8,2.1,12.7,2.1c3.5,0,6.7-0.3,9.4-1c2.4-0.5,4.8-1.3,7.2-2.2c2-0.8,3.6-1.7,4.9-2.6c1.3-0.9,2.2-1.5,2.8-1.8l-7-10.3  c-1.9,1.2-3.9,2.3-6,3.2c-2.7,1.2-6.4,1.8-10.7,1.8c-4.5,0-8-1-10.5-3.2c-2.6-2.2-3.9-4.7-3.9-7.5h39.4  C375.3,290.1,375.2,287.4,375.2,287.4z M92.9,299.6c-1.3,0.6-2.7,0.9-4.5,0.9c-2.3,0-3.9-0.7-5-2.1c-1-1.4-1.6-3.4-1.6-5.9v-20.9H96  v-12.8H81.8v-16h-17v16H56v12.8h8.8v20c0,3.3,0.3,6.3,1,9.1c0.7,2.7,1.9,5.1,3.5,7c1.7,1.9,3.8,3.5,6.5,4.5c2.7,1.1,6,1.6,9.9,1.6  c5.6,0,10.9-1.7,15.8-5l-5.4-11C95.2,298.5,94.1,299.1,92.9,299.6z M-99.7,257.7c-3.9,0-7.2,0.8-9.6,2.5c-2.5,1.7-4.4,3.4-5.9,5.2  l-0.6-6.7H-132v53.1h17v-26.3c0-4.2,1.2-7.5,3.7-9.8s5.7-3.4,9.7-3.4c1.9,0,3.6,0.2,5.1,0.6l2.7-14.4c-0.7-0.2-1.4-0.4-2.1-0.5  C-97.1,257.7-98.4,257.7-99.7,257.7L-99.7,257.7z M-89.3,311.8h17v-53.1h-17L-89.3,311.8L-89.3,311.8z M-27,288.2c0,3.4-1,6-2.8,7.6  c-1.8,1.6-4.6,2.4-8,2.4c-3.7,0-6.5-1.1-8.4-3.4c-1.9-2.2-2.9-5.3-2.9-9.1c0-1.9,0.3-3.8,0.9-5.6c0.6-1.8,1.5-3.3,2.7-4.6  c1.3-1.4,2.8-2.4,4.5-3.2c1.8-0.8,3.9-1.2,6.4-1.2c1.8,0,3.3,0.1,4.3,0.3c1.1,0.2,2.2,0.5,3.3,0.9L-27,288.2L-27,288.2z   M-34.4,257.6c-4.8,0-9.2,0.6-13,2c-3.9,1.4-7.2,3.3-10.1,5.9c-2.8,2.5-5,5.6-6.5,9.1c-1.5,3.5-2.3,7.4-2.3,11.7  c0,3.7,0.6,7.1,1.7,10.2c1.1,3.1,2.7,5.8,4.9,8c2.1,2.2,4.7,4,7.9,5.3c3.1,1.3,6.6,1.8,10.5,1.8c5.9,0,10.6-1.4,14.2-4.4v3.8  c0,3.9-1.1,6.9-3.3,8.8c-2.2,1.9-5.2,3-9.1,3c-2.8,0-5.5-0.3-8.2-1c-2.4-0.7-4.8-1.7-7-3l-6.8,11.5c3.1,1.9,6.4,3.4,10.1,4.3  c3.7,0.9,8,1.4,12.9,1.4c8.8,0,15.6-2.1,20.7-6.3c5.1-4.2,7.6-10.7,7.6-19.4v-48.8c-3.6-1.2-7.4-2.2-11.2-2.8  C-25.4,258-29.8,257.6-34.4,257.6L-34.4,257.6z M31.8,257.5c-3.1,0-6.1,0.6-9.1,1.6c-3,1.1-5.4,2.6-7.2,4.7v-27.5H-1.3v75.5h17  v-28.5c0-1.6,0.2-3,0.7-4.5c0.5-1.4,1.2-2.6,2.1-3.7c1-1,2.1-1.9,3.5-2.6c1.5-0.6,3.1-1,4.8-1c2.7,0,5,0.9,6.6,2.6  c1.7,1.8,2.5,4.2,2.5,7.2v30.3h16.9v-32.8c0-7.1-1.9-12.4-5.7-16C43.3,259.3,38.2,257.5,31.8,257.5z M-74.5,238  c-0.9-0.7-1.8-1.3-2.9-1.6c-1.1-0.4-2.2-0.6-3.4-0.6c-1.1,0-2.3,0.2-3.4,0.6c-1.1,0.4-2.1,0.9-3,1.6c-0.9,0.7-1.5,1.6-2.1,2.6  c-0.5,1.2-0.8,2.4-0.8,3.7c0,1.4,0.2,2.6,0.8,3.6c0.5,1,1.2,1.9,2.1,2.6c0.9,0.7,1.9,1.3,3,1.6c1.1,0.3,2.3,0.6,3.4,0.6  c1.1,0,2.3-0.2,3.4-0.6c1.1-0.3,2.1-0.9,2.9-1.6c0.9-0.7,1.5-1.6,2-2.6c0.5-1,0.8-2.2,0.8-3.6c0-1.4-0.2-2.6-0.8-3.7  C-72.9,239.6-73.6,238.7-74.5,238z"/>
</svg>