<?xml version="1.0" encoding="utf-8"?>
<!-- Generator: Adobe Illustrator 19.2.1, SVG Export Plug-In . SVG Version: 6.00 Build 0)  -->
<svg version="1.1" id="layer" xmlns="http://www.w3.org/2000/svg" xmlns:xlink="http://www.w3.org/1999/xlink" x="0px" y="0px"
	 viewBox="0 0 652 652" style="enable-background:new 0 0 652 652;" xml:space="preserve">
<style type="text/css">
	.st0{fill:#9c9c9c;}
</style>
<path class="st0" d="M33.4,250.1H21.5v0.3c10.9,4.3,16.3,12.6,20.5,31.9l29.4,135.6H78L48.5,281.2C43.4,257.7,38.1,253.4,33.4,250.1
	z M55.7,250.1H44.6v0.3c5,6,6.4,13.4,10.4,29.7l29.8,137.8h6.6L61.6,279.6C57.3,261.8,56.7,256.9,55.7,250.1z M96,408.3l4.4-9.2
	L75.6,282.2c-4.4-18.2-3.4-26.5-1.6-32.1h-9.6c-0.1,7.4,0.2,13.5,3.8,29.1L96,408.3z M104.9,389.8l4.5-9.3l-19.9-96.2
	c-3.7-18.7-2.1-28.4,4.1-33.9V250H82.8c-3.3,6.9-4.3,13.9-0.5,32.4C82.3,282.4,104.9,389.8,104.9,389.8z M113.8,371.2l4.5-9.4
	l-15.1-77c-4.2-21.7,0.8-31.1,17.9-34.4v-0.3h-15.8c-4.6,2.2-14.2,9.1-8.8,34.8L113.8,371.2z M143.4,309.8l0.4,0.3
	c10.6-35.1,13.9-50.6,4.6-60.1h-13.2v0.3C150,255.6,153.3,270.6,143.4,309.8z M144.3,310.4l0.4,0.3c16.6-39.3,20.9-50.1,27.8-60.4
	V250H159v0.4C160.4,266.1,155,280.6,144.3,310.4z M185.2,250.1c-14,8.2-22.4,23.4-40,60.9l0.4,0.3c20.2-37.9,31.8-53.1,57.9-60.9
	v-0.3C203.5,250.1,185.2,250.1,185.2,250.1z M189.5,312.4c-0.2-4-2.5-6.1-6.1-6.1c-8.7,0-18.2,13.8-23.9,28.2h0.3
	c5.8-12.8,14.6-25.5,19.7-25.5c2.1,0,3.5,1,3.7,3.7c0.2,5.6-9,26.6-12.8,35.7l-28,69.5h6.9l27.8-68.9C181,339,189.9,319,189.5,312.4
	z M202,311.6c-0.3-6.1-4.3-10.4-11.2-10.4c-15.1,0-26.7,16.2-32.3,33.3h0.3c5.9-15.3,16-30.6,28.1-30.6c5.3,0,8.4,2.9,8.7,8
	c0.4,8.2-7.9,26.9-11.9,37.2l-27.5,68.6h6.9l27.1-68.1C194.6,338.7,202.5,320.9,202,311.6z M214.4,310.8
	c-0.4-8.5-6.1-14.9-16.2-14.9c-21.7,0-35,18.7-40.7,38.6h0.3c6.1-18.5,18.5-35.9,36.5-35.9c8.5,0,13.3,5.3,13.7,12.8
	c0.5,10.4-6.5,27.1-11.3,38.9L170,417.8h7.2l26.3-67.3C208.2,338.2,215,322.8,214.4,310.8z M226.9,310.3
	c-0.6-10.9-7.9-19.4-21.3-19.4c-27.6,0-43.5,20.5-49.1,43.6h0.3c6.1-21.5,20.2-41,44.9-41c11.7,0,18.2,7.2,18.7,17
	c0.7,13-5.5,27.4-10.4,40.5l-26,66.8h6.9l25.5-66.3C222,337.9,227.6,324.3,226.9,310.3z M294.5,303.6c-0.6-12.2-7.8-17.9-16.7-17.9
	c-16,0-29.9,12.6-38.4,29.8c0-1.9,0-4,0-6c-0.7-13.3-9.8-23.7-26.3-23.7c-34.6,0-51.8,22.8-57.4,48.7h0.3c6-24.2,22.2-46,53.3-46
	c14.9,0,23.1,9.3,23.8,21.3c0.8,15.7-4.4,28-9.8,42.1l-25.2,66h6.9l25-65.5c1.7-4.5,3.3-8.7,4.7-12.8c5.1-10.4,11.2-21,14.3-21
	c2.4,0,3.1,2,3.3,3.9c0.5,6.9-2,18.3-7.4,28.1l0.3,0.2c6.3-5.6,13.4-22.4,13-31.1c-0.2-3.5-1.6-5.9-5.1-5.9
	c-5.4,0-12.2,11.1-17.3,22.8c0.6-1.8,1.1-3.7,1.6-5.6c5.4-11.7,12.9-21.7,20-21.7c4.3,0,6.8,2.9,7,7.7c0.6,11.7-9.9,28.8-18.7,34.3
	l0.3,0.2c12-5.3,25.1-22.9,24.4-37.2c-0.3-6.4-3.7-9.9-9-9.9c-8.8,0-17.4,10.2-23.2,22.9c0.2-1,0.3-2,0.5-3
	c6.5-13.6,16.3-24.4,27-24.4c5.9,0,10.3,4,10.7,11.7c0.9,17-15.2,35.1-29.8,40.5l0.3,0.2c17.9-4.5,36.5-23.7,35.5-43.4
	c-0.5-9.3-5.8-13.8-12.7-13.8c-12.3,0-23.4,11.2-30.5,25.9c0.1-0.8,0.1-1.6,0.1-2.5c7.9-15.9,20.3-27.9,34.6-27.9
	c7.7,0,14.1,5.1,14.7,15.7c1.2,22.6-19.9,41.8-41.2,46.6l0.3,0.2C272.7,349.4,295.8,328.9,294.5,303.6z M342.8,416.7l-0.2,0.4
	c34.5-9.3,66.8-69.4,69.5-98.9c0.7-7.6-2.6-12.1-8.2-12.8c-8.2-1.1-18.7,5.1-26.4,14.9l0.2,0.3c6.3-7.6,14.9-13,21-12.2
	c4,0.5,6.6,4,6.1,9.7C402.5,343.9,372.7,403.8,342.8,416.7z M342.3,417.8l-0.1,0.3c46.9-5.6,81.6-62.5,85-99.2
	c1.1-12.1-4.5-18.5-12.7-19.7c-12.5-1.7-28.1,6.6-37.6,20.1l0.2,0.3c9.2-11.9,21.9-18.9,32-17.5c7.2,1,11.5,6.4,10.6,16.3
	C416.6,351.8,384.7,408.9,342.3,417.8z M442,319.2c1.5-16.3-5.8-24.7-17.2-26.3c-16.5-2.3-36.5,7.8-48.6,25.5l0.2,0.3
	c11.1-15.3,29-24.7,43.3-22.8c9.8,1.3,16.4,8.8,15.1,23.1c-3.8,40.7-42.6,96.6-92.9,99.7l-0.1,0.3
	C397.6,418.7,437.8,363.5,442,319.2z M435.3,286.7c-20.7-2.8-45.8,9.4-59.9,30.7l0.2,0.3c13.3-19.2,36-30.6,54.5-28.1
	c12.5,1.7,21,11.2,19.3,29.7c-4.4,47.3-44.2,100.4-108,100.2l-0.1,0.3c66.2,2.5,111-49.6,115.7-100.4
	C458.9,299,449.4,288.6,435.3,286.7z M335,419.5c-30.7-1.3-46.3-16.3-44.7-33.7c0.6-7.4,3.4-14.3,5.9-20.4l35.6-92
	c4.5-11.5,12.7-28.8,6.2-37.3l-8.1,1.7v0.5c6.9,7.7,0.5,20.4-4.2,33.2l-35.5,91.3c-2.4,5.9-4.9,12.1-5.6,19.9
	c-1.6,19,15.2,36.2,50.2,37.2C334.9,419.8,335,419.5,335,419.5z M339.3,271.5L302,367.7c-2.4,6.1-5.6,13.7-6.1,21.5
	c-1.4,15.8,12.4,28.8,39.4,29.8l0.1-0.3c-22.8-1.3-35.3-12.1-34-26.3c0.6-7.4,4.1-16.2,6.5-22l38.6-99.1c3.5-9.1,13.7-31.3,8.2-38.7
	l-8.8,1.8v0.5C351.8,243.3,343.4,261.4,339.3,271.5z M354,269.4l-40.2,103.4c-2.4,6.1-6.2,15.6-6.8,22.8
	c-1.1,12.6,9.2,21.3,28.6,22.7l0.1-0.2c-4-0.4-7.9-1.4-11.7-2.8c-7.9-2.9-11.9-8.4-11.2-16.2c0.6-7.4,4.5-17.5,6.9-23.6l41.2-105.8
	c2.1-5.6,13.8-32.3,11-40.5l-8.5,1.6v0.5C367.8,237.7,356.7,262.5,354,269.4z M325.6,377.9c-2.4,6.1-6.6,17.2-7.2,24.4
	c-0.8,8.9,7,13.8,17.6,15.4l0.1-0.3c-7.2-1.3-12.7-4.7-12.1-11.9c0.6-6.9,5.5-19.3,7.5-24.9l42.9-110.1c1-2.9,17.3-42.4,15-44.9
	l-8.8,1.8v0.5c0.3,9.6-10.8,35.9-13.1,42.1C367.5,269.9,325.6,377.9,325.6,377.9z M337.4,383c-2.4,5.9-7.5,18.4-7.8,25.4
	c-0.1,3,2.1,6.5,5.2,8c0.5,0.2,1,0.4,1.5,0.6l0.2-0.4c-0.8-0.5-1.9-2.5-1.6-5.4c0.6-6.9,6.1-19.4,8.5-25.5L407.4,222l-8.8,1.8
	c0.5,2.1-16.9,44.8-17.6,46.9L337.4,383z M522.5,417.1l-0.1,0.3c29.8-4.3,60.4-66.7,61.1-108.3c0.1-9.1-5-18.3-18.5-20.6l-0.1,0.3
	c8.8,2.3,12.2,8,12.1,15.7C576.1,345.3,546.4,412.7,522.5,417.1z M521.9,418.2c40.7-4.2,73.3-56.5,74.1-99.8
	c0.2-11.8-7.5-28.2-30.7-30.7l-0.1,0.3c18.2,2.8,24.7,15.5,24.5,25.9c-0.7,42.4-32.6,99.3-67.6,104
	C522.1,417.9,521.9,418.2,521.9,418.2z M521.5,419.1c51.9-3.8,86.6-46.4,87.4-91.3c0.2-14.4-10-38.2-43.1-40.9l-0.1,0.3
	c27.5,2.9,37.2,23,37,36.1c-0.8,44.1-35,90.8-80.9,95.5L521.5,419.1L521.5,419.1z M566.1,286l-0.1,0.3c38.2,3.2,49.2,30.4,48.9,46.2
	c-0.8,45.7-36.3,82.7-93.7,87l-0.1,0.3c62.8-3.8,99.6-36.3,100.4-82.8C621.8,319.9,609.3,288.5,566.1,286L566.1,286z M465.9,373
	c0.8-45.5,40-82.7,93.7-87l0.1-0.3c-60.2,3.7-99.6,36.2-100.4,82.5c-0.3,17.1,12.2,48.8,55.4,51.3l0.1-0.3
	C476.9,416.5,465.6,388.8,465.9,373z M478.6,382.3c0.7-43.3,36.1-90.8,80.7-95.6l0.1-0.3c-50,3.8-86.7,46.6-87.4,91
	c-0.2,14.4,10,39,43.2,41.2l0.1-0.3C486.6,415.8,478.3,395.5,478.6,382.3z M491.2,391.6c0.7-41.4,34-99.4,67.7-104l0.1-0.3
	c-39.6,4.2-73.4,57.3-74.2,99.5c-0.2,11.8,7.7,29.2,30.7,31l0.1-0.3C497.4,415.3,491,402.1,491.2,391.6L491.2,391.6z M503.8,401
	c0.7-39.1,31.5-107.9,54.7-112.5l0.1-0.3c-28.7,4.2-60.5,67.7-61.1,108.1c-0.1,9.1,4.5,19.4,18.5,20.9l0.1-0.3
	C506.5,415.1,503.7,408.7,503.8,401z"/>
</svg>
